<svg xmlns="http://www.w3.org/2000/svg" xmlns:xlink="http://www.w3.org/1999/xlink" width="726" height="1078" contentScriptType="application/ecmascript" contentStyleType="text/css" preserveAspectRatio="none" version="1.1" viewBox="0 0 726 1078" zoomAndPan="magnify" style="width:726px;height:1078px"><defs><filter id="f1piqu5v4aqaxm" width="300%" height="300%" x="-1" y="-1"><feGaussianBlur result="blurOut" stdDeviation="2"/><feColorMatrix in="blurOut" result="blurOut2" type="matrix" values="0 0 0 0 0 0 0 0 0 0 0 0 0 0 0 0 0 0 .4 0"/><feOffset dx="4" dy="4" in="blurOut2" result="blurOut3"/><feBlend in="SourceGraphic" in2="blurOut3" mode="normal"/></filter></defs><g><polygon fill="#FFF" stroke="#000" stroke-width="1.5" points="36.999 601 46.999 591 245.999 591 245.999 1056 235.999 1066 36.999 1066 36.999 601" filter="url(#f1piqu5v4aqaxm)"/><line x1="235.999" x2="244.999" y1="601" y2="592" stroke="#000" stroke-width="1.5"/><line x1="36.999" x2="235.999" y1="601" y2="601" stroke="#000" stroke-width="1.5"/><line x1="235.999" x2="235.999" y1="601" y2="1066" stroke="#000" stroke-width="1.5"/><text x="88.499" y="617.535" fill="#000" font-family="sans-serif" font-size="14" font-weight="bold" lengthAdjust="spacingAndGlyphs" textLength="98">Core Node #1</text><polygon fill="#FFF" stroke="#000" stroke-width="1.5" points="272.999 601 282.999 591 481.999 591 481.999 1056 471.999 1066 272.999 1066 272.999 601" filter="url(#f1piqu5v4aqaxm)"/><line x1="471.999" x2="480.999" y1="601" y2="592" stroke="#000" stroke-width="1.5"/><line x1="272.999" x2="471.999" y1="601" y2="601" stroke="#000" stroke-width="1.5"/><line x1="471.999" x2="471.999" y1="601" y2="1066" stroke="#000" stroke-width="1.5"/><text x="324.499" y="617.535" fill="#000" font-family="sans-serif" font-size="14" font-weight="bold" lengthAdjust="spacingAndGlyphs" textLength="98">Core Node #2</text><polygon fill="#FFF" stroke="#000" stroke-width="1.5" points="499.999 601 509.999 591 704.999 591 704.999 1056 694.999 1066 499.999 1066 499.999 601" filter="url(#f1piqu5v4aqaxm)"/><line x1="694.999" x2="703.999" y1="601" y2="592" stroke="#000" stroke-width="1.5"/><line x1="499.999" x2="694.999" y1="601" y2="601" stroke="#000" stroke-width="1.5"/><line x1="694.999" x2="694.999" y1="601" y2="1066" stroke="#000" stroke-width="1.5"/><text x="548.499" y="617.535" fill="#000" font-family="sans-serif" font-size="14" font-weight="bold" lengthAdjust="spacingAndGlyphs" textLength="100">Core Node #N</text><polygon fill="#FFF" stroke="#000" stroke-width="1.5" points="130.999 279 140.999 269 412.999 269 412.999 534 402.999 544 130.999 544 130.999 279" filter="url(#f1piqu5v4aqaxm)"/><line x1="402.999" x2="411.999" y1="279" y2="270" stroke="#000" stroke-width="1.5"/><line x1="130.999" x2="402.999" y1="279" y2="279" stroke="#000" stroke-width="1.5"/><line x1="402.999" x2="402.999" y1="279" y2="544" stroke="#000" stroke-width="1.5"/><text x="217.499" y="295.535" fill="#000" font-family="sans-serif" font-size="14" font-weight="bold" lengthAdjust="spacingAndGlyphs" textLength="101">Explorer Node</text><rect width="96" height="36.488" x="117.999" y="838" fill="#FEFECE" stroke="#000" stroke-width="1.5" filter="url(#f1piqu5v4aqaxm)"/><text x="127.999" y="861.535" fill="#000" font-family="sans-serif" font-size="14" lengthAdjust="spacingAndGlyphs" textLength="76">Radix Core</text><rect width="63" height="36.488" x="134.499" y="647" fill="#FEFECE" stroke="#000" stroke-width="1.5" filter="url(#f1piqu5v4aqaxm)"/><text x="144.499" y="670.535" fill="#000" font-family="sans-serif" font-size="14" lengthAdjust="spacingAndGlyphs" textLength="43">NGINX</text><polygon fill="#FEFECE" stroke="#000" stroke-width="1.5" points="44.999 1017.5 44.999 1053.988 130.999 1053.988 130.999 1027.5 120.999 1017.5 44.999 1017.5" filter="url(#f1piqu5v4aqaxm)"/><path fill="#FEFECE" stroke="#000" stroke-width="1.5" d="M120.9986,1017.5 L120.9986,1027.5 L130.9986,1027.5"/><text x="54.999" y="1041.035" fill="#000" font-family="sans-serif" font-size="14" lengthAdjust="spacingAndGlyphs" textLength="66">atoms.zst</text><path fill="#FEFECE" stroke="#000" stroke-width="1.5" d="M166.4986,1023 C166.4986,1013 199.9986,1013 199.9986,1013 C199.9986,1013 233.4986,1013 233.4986,1023 L233.4986,1048.4883 C233.4986,1058.4883 199.9986,1058.4883 199.9986,1058.4883 C199.9986,1058.4883 166.4986,1058.4883 166.4986,1048.4883 L166.4986,1023" filter="url(#f1piqu5v4aqaxm)"/><path fill="none" stroke="#000" stroke-width="1.5" d="M166.4986,1023 C166.4986,1033 199.9986,1033 199.9986,1033 C199.9986,1033 233.4986,1033 233.4986,1023"/><text x="176.499" y="1050.535" fill="#000" font-family="sans-serif" font-size="14" lengthAdjust="spacingAndGlyphs" textLength="47">Ledger</text><rect width="96" height="36.488" x="312.999" y="838" fill="#FEFECE" stroke="#000" stroke-width="1.5" filter="url(#f1piqu5v4aqaxm)"/><text x="322.999" y="861.535" fill="#000" font-family="sans-serif" font-size="14" lengthAdjust="spacingAndGlyphs" textLength="76">Radix Core</text><rect width="63" height="36.488" x="329.499" y="647" fill="#FEFECE" stroke="#000" stroke-width="1.5" filter="url(#f1piqu5v4aqaxm)"/><text x="339.499" y="670.535" fill="#000" font-family="sans-serif" font-size="14" lengthAdjust="spacingAndGlyphs" textLength="43">NGINX</text><polygon fill="#FEFECE" stroke="#000" stroke-width="1.5" points="280.999 1017.5 280.999 1053.988 366.999 1053.988 366.999 1027.5 356.999 1017.5 280.999 1017.5" filter="url(#f1piqu5v4aqaxm)"/><path fill="#FEFECE" stroke="#000" stroke-width="1.5" d="M356.9986,1017.5 L356.9986,1027.5 L366.9986,1027.5"/><text x="290.999" y="1041.035" fill="#000" font-family="sans-serif" font-size="14" lengthAdjust="spacingAndGlyphs" textLength="66">atoms.zst</text><path fill="#FEFECE" stroke="#000" stroke-width="1.5" d="M402.4986,1023 C402.4986,1013 435.9986,1013 435.9986,1013 C435.9986,1013 469.4986,1013 469.4986,1023 L469.4986,1048.4883 C469.4986,1058.4883 435.9986,1058.4883 435.9986,1058.4883 C435.9986,1058.4883 402.4986,1058.4883 402.4986,1048.4883 L402.4986,1023" filter="url(#f1piqu5v4aqaxm)"/><path fill="none" stroke="#000" stroke-width="1.5" d="M402.4986,1023 C402.4986,1033 435.9986,1033 435.9986,1033 C435.9986,1033 469.4986,1033 469.4986,1023"/><text x="412.499" y="1050.535" fill="#000" font-family="sans-serif" font-size="14" lengthAdjust="spacingAndGlyphs" textLength="47">Ledger</text><rect width="96" height="36.488" x="507.999" y="838" fill="#FEFECE" stroke="#000" stroke-width="1.5" filter="url(#f1piqu5v4aqaxm)"/><text x="517.999" y="861.535" fill="#000" font-family="sans-serif" font-size="14" lengthAdjust="spacingAndGlyphs" textLength="76">Radix Core</text><rect width="63" height="36.488" x="524.499" y="647" fill="#FEFECE" stroke="#000" stroke-width="1.5" filter="url(#f1piqu5v4aqaxm)"/><text x="534.499" y="670.535" fill="#000" font-family="sans-serif" font-size="14" lengthAdjust="spacingAndGlyphs" textLength="43">NGINX</text><polygon fill="#FEFECE" stroke="#000" stroke-width="1.5" points="507.999 1017.5 507.999 1053.988 593.999 1053.988 593.999 1027.5 583.999 1017.5 507.999 1017.5" filter="url(#f1piqu5v4aqaxm)"/><path fill="#FEFECE" stroke="#000" stroke-width="1.5" d="M583.9986,1017.5 L583.9986,1027.5 L593.9986,1027.5"/><text x="517.999" y="1041.035" fill="#000" font-family="sans-serif" font-size="14" lengthAdjust="spacingAndGlyphs" textLength="66">atoms.zst</text><path fill="#FEFECE" stroke="#000" stroke-width="1.5" d="M629.4986,1023 C629.4986,1013 662.9986,1013 662.9986,1013 C662.9986,1013 696.4986,1013 696.4986,1023 L696.4986,1048.4883 C696.4986,1058.4883 662.9986,1058.4883 662.9986,1058.4883 C662.9986,1058.4883 629.4986,1058.4883 629.4986,1048.4883 L629.4986,1023" filter="url(#f1piqu5v4aqaxm)"/><path fill="none" stroke="#000" stroke-width="1.5" d="M629.4986,1023 C629.4986,1033 662.9986,1033 662.9986,1033 C662.9986,1033 696.4986,1033 696.4986,1023"/><text x="639.499" y="1050.535" fill="#000" font-family="sans-serif" font-size="14" lengthAdjust="spacingAndGlyphs" textLength="47">Ledger</text><rect width="63" height="36.488" x="147.499" y="325" fill="#FEFECE" stroke="#000" stroke-width="1.5" filter="url(#f1piqu5v4aqaxm)"/><text x="157.499" y="348.535" fill="#000" font-family="sans-serif" font-size="14" lengthAdjust="spacingAndGlyphs" textLength="43">NGINX</text><rect width="79" height="36.488" x="139.499" y="500" fill="#FEFECE" stroke="#000" stroke-width="1.5" filter="url(#f1piqu5v4aqaxm)"/><text x="149.499" y="523.535" fill="#000" font-family="sans-serif" font-size="14" lengthAdjust="spacingAndGlyphs" textLength="59">Explorer</text><rect width="104" height="36.488" x="300.999" y="500" fill="#FEFECE" stroke="#000" stroke-width="1.5" filter="url(#f1piqu5v4aqaxm)"/><text x="310.999" y="523.535" fill="#000" font-family="sans-serif" font-size="14" lengthAdjust="spacingAndGlyphs" textLength="84">Node Finder</text><polygon fill="#FEFECE" stroke="#000" stroke-width="1.5" points="121.499 178 131.499 168 236.499 168 236.499 204.488 226.499 214.488 121.499 214.488 121.499 178" filter="url(#f1piqu5v4aqaxm)"/><line x1="226.499" x2="235.499" y1="178" y2="169" stroke="#000" stroke-width="1.5"/><line x1="121.499" x2="226.499" y1="178" y2="178" stroke="#000" stroke-width="1.5"/><line x1="226.499" x2="226.499" y1="178" y2="214.488" stroke="#000" stroke-width="1.5"/><text x="136.499" y="201.535" fill="#000" font-family="sans-serif" font-size="14" lengthAdjust="spacingAndGlyphs" textLength="75">CloudFlare</text><ellipse cx="178.999" cy="18" fill="#FEFECE" stroke="#A80036" stroke-width="2" filter="url(#f1piqu5v4aqaxm)" rx="8" ry="8"/><path fill="none" stroke="#A80036" stroke-width="2" d="M178.9986,26 L178.9986,53 M165.9986,34 L191.9986,34 M178.9986,53 L165.9986,68 M178.9986,53 L191.9986,68" filter="url(#f1piqu5v4aqaxm)"/><text x="139.499" y="88.535" fill="#000" font-family="sans-serif" font-size="14" lengthAdjust="spacingAndGlyphs" textLength="79">Community</text><path id="nginx1-core1" fill="none" stroke="#A80036" stroke-dasharray="7 7" stroke-width="1" d="M165.9986,683.3139 C165.9986,718.1105 165.9986,793.7413 165.9986,832.3267"/><polygon fill="#A80036" stroke="#A80036" stroke-width="1" points="165.999 837.742 169.999 828.742 165.999 832.742 161.999 828.742 165.999 837.742"/><text x="166.999" y="757.568" fill="#000" font-family="sans-serif" font-size="13" lengthAdjust="spacingAndGlyphs" textLength="52">protects</text><path id="core1-atoms1" fill="none" stroke="#A80036" stroke-dasharray="7 7" stroke-width="1" d="M158.0903,874.1992 C143.7828,907.1248 113.6331,976.5078 97.95,1012.599"/><polygon fill="#A80036" stroke="#A80036" stroke-width="1" points="95.928 1017.253 103.183 1010.592 97.921 1012.667 95.846 1007.404 95.928 1017.253"/><text x="131.999" y="948.568" fill="#000" font-family="sans-serif" font-size="13" lengthAdjust="spacingAndGlyphs" textLength="34">reads</text><path id="core1-ledger1" fill="none" stroke="#A80036" stroke-dasharray="7 7" stroke-width="1" d="M169.4458,874.1992 C175.3995,905.6312 187.6464,970.288 194.6928,1007.4883"/><polygon fill="#A80036" stroke="#A80036" stroke-width="1" points="195.693 1012.77 197.948 1003.183 194.763 1007.858 190.088 1004.672 195.693 1012.77"/><text x="184.999" y="948.568" fill="#000" font-family="sans-serif" font-size="13" lengthAdjust="spacingAndGlyphs" textLength="50">persists</text><path id="nginx2-core2" fill="none" stroke="#A80036" stroke-dasharray="7 7" stroke-width="1" d="M360.9986,683.3139 C360.9986,718.1105 360.9986,793.7413 360.9986,832.3267"/><polygon fill="#A80036" stroke="#A80036" stroke-width="1" points="360.999 837.742 364.999 828.742 360.999 832.742 356.999 828.742 360.999 837.742"/><text x="361.999" y="757.568" fill="#000" font-family="sans-serif" font-size="13" lengthAdjust="spacingAndGlyphs" textLength="52">protects</text><path id="core2-atoms2" fill="none" stroke="#A80036" stroke-dasharray="7 7" stroke-width="1" d="M356.6597,874.1571 C352.8882,890.1422 347.3603,914.0681 342.9986,935 C337.4887,961.4421 331.8186,991.9428 328.124,1012.3437"/><polygon fill="#A80036" stroke="#A80036" stroke-width="1" points="327.228 1017.304 332.764 1009.158 328.117 1012.384 324.891 1007.737 327.228 1017.304"/><text x="343.999" y="948.568" fill="#000" font-family="sans-serif" font-size="13" lengthAdjust="spacingAndGlyphs" textLength="34">reads</text><path id="core2-ledger2" fill="none" stroke="#A80036" stroke-dasharray="7 7" stroke-width="1" d="M368.6027,874.1992 C381.7897,905.76 408.9729,970.8185 424.4851,1007.9443"/><polygon fill="#A80036" stroke="#A80036" stroke-width="1" points="426.502 1012.77 426.723 1002.924 424.574 1008.157 419.341 1006.008 426.502 1012.77"/><text x="400.999" y="948.568" fill="#000" font-family="sans-serif" font-size="13" lengthAdjust="spacingAndGlyphs" textLength="50">persists</text><path id="nginxn-coren" fill="none" stroke="#A80036" stroke-dasharray="7 7" stroke-width="1" d="M555.9986,683.3139 C555.9986,718.1105 555.9986,793.7413 555.9986,832.3267"/><polygon fill="#A80036" stroke="#A80036" stroke-width="1" points="555.999 837.742 559.999 828.742 555.999 832.742 551.999 828.742 555.999 837.742"/><text x="556.999" y="757.568" fill="#000" font-family="sans-serif" font-size="13" lengthAdjust="spacingAndGlyphs" textLength="52">protects</text><path id="coren-atomsn" fill="none" stroke="#A80036" stroke-dasharray="7 7" stroke-width="1" d="M555.4916,874.1992 C554.5782,906.9904 552.6576,975.942 551.6489,1012.1554"/><polygon fill="#A80036" stroke="#A80036" stroke-width="1" points="551.507 1017.253 555.756 1008.367 551.646 1012.255 547.759 1008.145 551.507 1017.253"/><text x="553.999" y="948.568" fill="#000" font-family="sans-serif" font-size="13" lengthAdjust="spacingAndGlyphs" textLength="29">uses</text><path id="coren-ledgern" fill="none" stroke="#A80036" stroke-dasharray="7 7" stroke-width="1" d="M566.8472,874.1992 C585.7373,905.8888 624.7588,971.3502 646.8428,1008.3975"/><polygon fill="#A80036" stroke="#A80036" stroke-width="1" points="649.449 1012.77 648.277 1002.992 646.889 1008.476 641.405 1007.088 649.449 1012.77"/><text x="613.999" y="948.568" fill="#000" font-family="sans-serif" font-size="13" lengthAdjust="spacingAndGlyphs" textLength="50">persists</text><path id="core1-core2" fill="none" stroke="#A80036" stroke-dasharray="7 7" stroke-width="1" d="M219.558,856 C246.972,856 280.2463,856 307.6327,856"/><polygon fill="#A80036" stroke="#A80036" stroke-width="1" points="312.675 856 303.675 852 307.675 856 303.675 860 312.675 856"/><polygon fill="#A80036" stroke="#A80036" stroke-width="1" points="214.201 856 223.201 860 219.201 856 223.201 852 214.201 856"/><text x="238.999" y="849.568" fill="#000" font-family="sans-serif" font-size="13" lengthAdjust="spacingAndGlyphs" textLength="49">gossips</text><path id="core2-coren" fill="none" stroke="#A80036" stroke-dasharray="7 7" stroke-width="1" d="M414.558,856 C441.972,856 475.2463,856 502.6327,856"/><polygon fill="#A80036" stroke="#A80036" stroke-width="1" points="507.675 856 498.675 852 502.675 856 498.675 860 507.675 856"/><polygon fill="#A80036" stroke="#A80036" stroke-width="1" points="409.201 856 418.201 860 414.201 856 418.201 852 409.201 856"/><text x="433.999" y="849.568" fill="#000" font-family="sans-serif" font-size="13" lengthAdjust="spacingAndGlyphs" textLength="49">gossips</text><path id="core1-coren" fill="none" stroke="#A80036" stroke-dasharray="7 7" stroke-width="1" d="M178.4253,833.4708 C186.6046,821.1071 198.559,806.9181 213.4986,800 C234.067,790.4754 241.9108,798.1101 264.4986,800 C365.78,808.4739 390.7381,816.1576 489.9986,838 C494.1671,838.9173 498.4659,839.9318 502.7762,840.998"/><polygon fill="#A80036" stroke="#A80036" stroke-width="1" points="507.834 842.271 500.083 836.195 502.986 841.051 498.13 843.953 507.834 842.271"/><polygon fill="#A80036" stroke="#A80036" stroke-width="1" points="175.584 837.926 183.796 832.489 178.272 833.711 177.05 828.187 175.584 837.926"/><text x="214.499" y="804.568" fill="#000" font-family="sans-serif" font-size="13" lengthAdjust="spacingAndGlyphs" textLength="49">gossips</text><path id="explorer_nginx-explorer_app" fill="none" stroke="#A80036" stroke-dasharray="7 7" stroke-width="1" d="M178.9986,361.0689 C178.9986,392.9002 178.9986,458.9453 178.9986,494.3568"/><polygon fill="#A80036" stroke="#A80036" stroke-width="1" points="178.999 499.767 182.999 490.767 178.999 494.767 174.999 490.767 178.999 499.767"/><text x="179.999" y="435.568" fill="#000" font-family="sans-serif" font-size="13" lengthAdjust="spacingAndGlyphs" textLength="52">protects</text><path id="explorer_app-node_finder" fill="none" stroke="#A80036" stroke-dasharray="7 7" stroke-width="1" d="M218.9177,518 C241.586,518 270.3567,518 295.4302,518"/><polygon fill="#A80036" stroke="#A80036" stroke-width="1" points="300.721 518 291.721 514 295.721 518 291.721 522 300.721 518"/><text x="236.749" y="511.568" fill="#000" font-family="sans-serif" font-size="13" lengthAdjust="spacingAndGlyphs" textLength="46">queries</text><path id="explorer_app-nginx1" fill="none" stroke="#A80036" stroke-dasharray="7 7" stroke-width="1" d="M139.2442,524.0112 C95.4002,531.5487 29.0416,545.9572 13.9986,566 C-20.9591,612.5764 73.8956,643.5205 129.2654,657.1136"/><polygon fill="#A80036" stroke="#A80036" stroke-width="1" points="134.166 658.297 126.357 652.296 129.306 657.123 124.479 660.072 134.166 658.297"/><text x="14.999" y="579.568" fill="#000" font-family="sans-serif" font-size="13" lengthAdjust="spacingAndGlyphs" textLength="69">aggregates</text><path id="explorer_app-nginx2" fill="none" stroke="#A80036" stroke-dasharray="7 7" stroke-width="1" d="M147.9226,536.1585 C128.906,549.4812 110.7308,567.82 124.9986,583 C134.834,593.4642 240.429,586.299 253.9986,591 C286.2112,602.1597 317.6349,625.8843 338.002,643.4779"/><polygon fill="#A80036" stroke="#A80036" stroke-width="1" points="341.925 646.909 337.784 637.973 338.161 643.617 332.517 643.995 341.925 646.909"/><text x="125.999" y="579.568" fill="#000" font-family="sans-serif" font-size="13" lengthAdjust="spacingAndGlyphs" textLength="69">aggregates</text><path id="explorer_app-nginxn" fill="none" stroke="#A80036" stroke-dasharray="7 7" stroke-width="1" d="M218.5405,528.5593 C249.196,537.2433 292.4665,550.5967 328.9986,566 C343.8381,572.2569 345.4997,578.6248 360.9986,583 C388.6401,590.803 464.1638,578.45 489.9986,591 C512.9807,602.1643 531.499,625.2572 543.0044,642.6942"/><polygon fill="#A80036" stroke="#A80036" stroke-width="1" points="545.777 646.995 544.262 637.263 543.068 642.792 537.538 641.598 545.777 646.995"/><text x="361.999" y="579.568" fill="#000" font-family="sans-serif" font-size="13" lengthAdjust="spacingAndGlyphs" textLength="69">aggregates</text><path id="node_finder-nginx1" fill="none" stroke="#A80036" stroke-dasharray="7 7" stroke-width="1" d="M300.9707,532.2483 C279.3733,539.8813 254.9796,550.8902 235.9986,566 C209.7069,586.9296 188.9844,620.2555 177.1097,642.3775"/><polygon fill="#A80036" stroke="#A80036" stroke-width="1" points="174.711 646.919 182.451 640.829 177.046 642.498 175.377 637.093 174.711 646.919"/><text x="236.999" y="579.568" fill="#000" font-family="sans-serif" font-size="13" lengthAdjust="spacingAndGlyphs" textLength="87">health checks</text><path id="node_finder-nginx2" fill="none" stroke="#A80036" stroke-dasharray="7 7" stroke-width="1" d="M405.3442,535.5092 C419.0095,542.729 432.1056,552.6306 439.9986,566 C457.1359,595.0277 425.4202,624.7908 397.2149,643.9996"/><polygon fill="#A80036" stroke="#A80036" stroke-width="1" points="392.726 646.99 402.434 645.329 396.887 644.218 397.998 638.671 392.726 646.99"/><text x="444.999" y="579.568" fill="#000" font-family="sans-serif" font-size="13" lengthAdjust="spacingAndGlyphs" textLength="87">health checks</text><path id="node_finder-nginxn" fill="none" stroke="#A80036" stroke-dasharray="7 7" stroke-width="1" d="M405.3153,524.8287 C454.4288,532.3505 522.9717,546.0818 540.9986,566 C559.4652,586.4041 560.8287,619.4313 559.1802,641.6667"/><polygon fill="#A80036" stroke="#A80036" stroke-width="1" points="558.733 646.794 563.5 638.176 559.168 641.813 555.53 637.481 558.733 646.794"/><text x="551.999" y="579.568" fill="#000" font-family="sans-serif" font-size="13" lengthAdjust="spacingAndGlyphs" textLength="87">health checks</text><path id="Community-CloudFlare" fill="none" stroke="#A80036" stroke-dasharray="7 7" stroke-width="1" d="M178.9986,91.1893 C178.9986,114.186 178.9986,142.1407 178.9986,162.6091"/><polygon fill="#A80036" stroke="#A80036" stroke-width="1" points="178.999 167.644 182.999 158.644 178.999 162.644 174.999 158.644 178.999 167.644"/><text x="183.999" y="134.568" fill="#000" font-family="sans-serif" font-size="13" lengthAdjust="spacingAndGlyphs" textLength="192">https://www.radixdlt.com/1m</text><path id="CloudFlare-explorer_nginx" fill="none" stroke="#A80036" stroke-dasharray="7 7" stroke-width="1" d="M178.9986,214.0855 C178.9986,242.7007 178.9986,291.1841 178.9986,319.8357"/><polygon fill="#A80036" stroke="#A80036" stroke-width="1" points="178.999 324.946 182.999 315.946 178.999 319.946 174.999 315.946 178.999 324.946"/><text x="179.999" y="257.568" fill="#000" font-family="sans-serif" font-size="13" lengthAdjust="spacingAndGlyphs" textLength="52">protects</text></g></svg>