<svg xmlns="http://www.w3.org/2000/svg" xmlns:xlink="http://www.w3.org/1999/xlink" width="583" height="689" contentScriptType="application/ecmascript" contentStyleType="text/css" preserveAspectRatio="none" version="1.1" viewBox="0 0 583 689" zoomAndPan="magnify" style="width:583px;height:689px"><defs><filter id="f1v2ausvuwa2wf" width="300%" height="300%" x="-1" y="-1"><feGaussianBlur result="blurOut" stdDeviation="2"/><feColorMatrix in="blurOut" result="blurOut2" type="matrix" values="0 0 0 0 0 0 0 0 0 0 0 0 0 0 0 0 0 0 .4 0"/><feOffset dx="4" dy="4" in="blurOut2" result="blurOut3"/><feBlend in="SourceGraphic" in2="blurOut3" mode="normal"/></filter></defs><g><line x1="68" x2="68" y1="38.488" y2="648.699" stroke="#A80036" stroke-dasharray="5 5" stroke-width="1"/><line x1="318" x2="318" y1="38.488" y2="648.699" stroke="#A80036" stroke-dasharray="5 5" stroke-width="1"/><line x1="388" x2="388" y1="38.488" y2="648.699" stroke="#A80036" stroke-dasharray="5 5" stroke-width="1"/><line x1="458" x2="458" y1="38.488" y2="648.699" stroke="#A80036" stroke-dasharray="5 5" stroke-width="1"/><line x1="537" x2="537" y1="38.488" y2="648.699" stroke="#A80036" stroke-dasharray="5 5" stroke-width="1"/><rect width="116" height="30.488" x="8" y="3" fill="#FEFECE" stroke="#A80036" stroke-width="1.5" filter="url(#f1v2ausvuwa2wf)"/><text x="15" y="23.535" fill="#000" font-family="sans-serif" font-size="14" lengthAdjust="spacingAndGlyphs" textLength="102">ShardAllocator</text><rect width="116" height="30.488" x="8" y="647.699" fill="#FEFECE" stroke="#A80036" stroke-width="1.5" filter="url(#f1v2ausvuwa2wf)"/><text x="15" y="668.234" fill="#000" font-family="sans-serif" font-size="14" lengthAdjust="spacingAndGlyphs" textLength="102">ShardAllocator</text><rect width="56" height="30.488" x="288" y="3" fill="#FEFECE" stroke="#A80036" stroke-width="1.5" filter="url(#f1v2ausvuwa2wf)"/><text x="295" y="23.535" fill="#000" font-family="sans-serif" font-size="14" lengthAdjust="spacingAndGlyphs" textLength="42">Core1</text><rect width="56" height="30.488" x="288" y="647.699" fill="#FEFECE" stroke="#A80036" stroke-width="1.5" filter="url(#f1v2ausvuwa2wf)"/><text x="295" y="668.234" fill="#000" font-family="sans-serif" font-size="14" lengthAdjust="spacingAndGlyphs" textLength="42">Core1</text><rect width="56" height="30.488" x="358" y="3" fill="#FEFECE" stroke="#A80036" stroke-width="1.5" filter="url(#f1v2ausvuwa2wf)"/><text x="365" y="23.535" fill="#000" font-family="sans-serif" font-size="14" lengthAdjust="spacingAndGlyphs" textLength="42">Core2</text><rect width="56" height="30.488" x="358" y="647.699" fill="#FEFECE" stroke="#A80036" stroke-width="1.5" filter="url(#f1v2ausvuwa2wf)"/><text x="365" y="668.234" fill="#000" font-family="sans-serif" font-size="14" lengthAdjust="spacingAndGlyphs" textLength="42">Core2</text><rect width="56" height="30.488" x="428" y="3" fill="#FEFECE" stroke="#A80036" stroke-width="1.5" filter="url(#f1v2ausvuwa2wf)"/><text x="435" y="23.535" fill="#000" font-family="sans-serif" font-size="14" lengthAdjust="spacingAndGlyphs" textLength="42">Core3</text><rect width="56" height="30.488" x="428" y="647.699" fill="#FEFECE" stroke="#A80036" stroke-width="1.5" filter="url(#f1v2ausvuwa2wf)"/><text x="435" y="668.234" fill="#000" font-family="sans-serif" font-size="14" lengthAdjust="spacingAndGlyphs" textLength="42">Core3</text><rect width="74" height="30.488" x="498" y="3" fill="#FEFECE" stroke="#A80036" stroke-width="1.5" filter="url(#f1v2ausvuwa2wf)"/><text x="505" y="23.535" fill="#000" font-family="sans-serif" font-size="14" lengthAdjust="spacingAndGlyphs" textLength="60">Core101</text><rect width="74" height="30.488" x="498" y="647.699" fill="#FEFECE" stroke="#A80036" stroke-width="1.5" filter="url(#f1v2ausvuwa2wf)"/><text x="505" y="668.234" fill="#000" font-family="sans-serif" font-size="14" lengthAdjust="spacingAndGlyphs" textLength="60">Core101</text><path fill="#FBFB77" stroke="#A80036" stroke-width="1" d="M8,53.4883 L8,139.4883 L374,139.4883 L374,63.4883 L364,53.4883 L8,53.4883" filter="url(#f1v2ausvuwa2wf)"/><path fill="#FBFB77" stroke="#A80036" stroke-width="1" d="M364,53.4883 L364,63.4883 L374,63.4883 L364,53.4883"/><text x="14" y="71.057" fill="#000" font-family="sans-serif" font-size="13" lengthAdjust="spacingAndGlyphs" textLength="155">Max Chunk Size: M = 2⁴⁴</text><text x="14" y="86.367" fill="#000" font-family="sans-serif" font-size="13" lengthAdjust="spacingAndGlyphs" textLength="173">Number of Shards: N = 100</text><text x="14" y="101.678" fill="#000" font-family="sans-serif" font-size="13" lengthAdjust="spacingAndGlyphs" textLength="180">Optimal Chunk Range: 2⁴⁴/N</text><text x="14" y="116.988" fill="#000" font-family="sans-serif" font-size="13" lengthAdjust="spacingAndGlyphs" textLength="306">Chunk Range with 10% overlap: R = 1.1 x (2⁴⁴/N)</text><text x="14" y="132.299" fill="#000" font-family="sans-serif" font-size="13" lengthAdjust="spacingAndGlyphs" textLength="345">NodeKey Generation Coeff for 10% overlap: C = 0.1 x R</text><polygon fill="#A80036" stroke="#A80036" stroke-width="1" points="79 166.352 69 170.352 79 174.352 75 170.352"/><line x1="73" x2="317" y1="170.352" y2="170.352" stroke="#A80036" stroke-width="1"/><text x="85" y="165.609" fill="#000" font-family="sans-serif" font-size="13" lengthAdjust="spacingAndGlyphs" textLength="226">GET /shard seed=randomTextHere1</text><polygon fill="#A80036" stroke="#A80036" stroke-width="1" points="306 195.662 316 199.662 306 203.662 310 199.662"/><line x1="68" x2="312" y1="199.662" y2="199.662" stroke="#A80036" stroke-width="1"/><text x="75" y="194.92" fill="#000" font-family="sans-serif" font-size="13" lengthAdjust="spacingAndGlyphs" textLength="192">[87960930222, 19351404648]</text><path fill="#FBFB77" stroke="#A80036" stroke-width="1" d="M153,212.6621 L153,237.6621 L479,237.6621 L479,222.6621 L469,212.6621 L153,212.6621" filter="url(#f1v2ausvuwa2wf)"/><path fill="#FBFB77" stroke="#A80036" stroke-width="1" d="M469,212.6621 L469,222.6621 L479,222.6621 L469,212.6621"/><text x="159" y="230.231" fill="#000" font-family="sans-serif" font-size="13" lengthAdjust="spacingAndGlyphs" textLength="305">generate_node_key 87960930222 19351404648</text><polygon fill="#A80036" stroke="#A80036" stroke-width="1" points="79 264.283 69 268.283 79 272.283 75 268.283"/><line x1="73" x2="387" y1="268.283" y2="268.283" stroke="#A80036" stroke-width="1"/><text x="85" y="263.541" fill="#000" font-family="sans-serif" font-size="13" lengthAdjust="spacingAndGlyphs" textLength="226">GET /shard seed=randomTextHere2</text><polygon fill="#A80036" stroke="#A80036" stroke-width="1" points="376 293.594 386 297.594 376 301.594 380 297.594"/><line x1="68" x2="382" y1="297.594" y2="297.594" stroke="#A80036" stroke-width="1"/><text x="75" y="292.852" fill="#000" font-family="sans-serif" font-size="13" lengthAdjust="spacingAndGlyphs" textLength="200">[263882790666, 19351404648]</text><path fill="#FBFB77" stroke="#A80036" stroke-width="1" d="M219,310.5938 L219,335.5938 L553,335.5938 L553,320.5938 L543,310.5938 L219,310.5938" filter="url(#f1v2ausvuwa2wf)"/><path fill="#FBFB77" stroke="#A80036" stroke-width="1" d="M543,310.5938 L543,320.5938 L553,320.5938 L543,310.5938"/><text x="225" y="328.162" fill="#000" font-family="sans-serif" font-size="13" lengthAdjust="spacingAndGlyphs" textLength="313">generate_node_key 263882790666 19351404648</text><polygon fill="#A80036" stroke="#A80036" stroke-width="1" points="79 362.215 69 366.215 79 370.215 75 366.215"/><line x1="73" x2="457" y1="366.215" y2="366.215" stroke="#A80036" stroke-width="1"/><text x="85" y="361.473" fill="#000" font-family="sans-serif" font-size="13" lengthAdjust="spacingAndGlyphs" textLength="226">GET /shard seed=randomTextHere3</text><polygon fill="#A80036" stroke="#A80036" stroke-width="1" points="446 391.525 456 395.525 446 399.525 450 395.525"/><line x1="68" x2="452" y1="395.525" y2="395.525" stroke="#A80036" stroke-width="1"/><text x="75" y="390.783" fill="#000" font-family="sans-serif" font-size="13" lengthAdjust="spacingAndGlyphs" textLength="200">[439804651110, 19351404648]</text><path fill="#FBFB77" stroke="#A80036" stroke-width="1" d="M219,408.5254 L219,433.5254 L553,433.5254 L553,418.5254 L543,408.5254 L219,408.5254" filter="url(#f1v2ausvuwa2wf)"/><path fill="#FBFB77" stroke="#A80036" stroke-width="1" d="M543,408.5254 L543,418.5254 L553,418.5254 L543,408.5254"/><text x="225" y="426.094" fill="#000" font-family="sans-serif" font-size="13" lengthAdjust="spacingAndGlyphs" textLength="313">generate_node_key 439804651110 19351404648</text><polygon fill="#A80036" stroke="#A80036" stroke-width="1" points="79 460.147 69 464.147 79 468.147 75 464.147"/><line x1="73" x2="536" y1="464.147" y2="464.147" stroke="#A80036" stroke-width="1"/><text x="85" y="459.404" fill="#000" font-family="sans-serif" font-size="13" lengthAdjust="spacingAndGlyphs" textLength="242">GET /shard seed=randomTextHere101</text><polygon fill="#A80036" stroke="#A80036" stroke-width="1" points="525 489.457 535 493.457 525 497.457 529 493.457"/><line x1="68" x2="531" y1="493.457" y2="493.457" stroke="#A80036" stroke-width="1"/><text x="75" y="488.715" fill="#000" font-family="sans-serif" font-size="13" lengthAdjust="spacingAndGlyphs" textLength="192">[87960930222, 19351404648]</text><path fill="#FBFB77" stroke="#A80036" stroke-width="1" d="M223,506.457 L223,531.457 L549,531.457 L549,516.457 L539,506.457 L223,506.457" filter="url(#f1v2ausvuwa2wf)"/><path fill="#FBFB77" stroke="#A80036" stroke-width="1" d="M539,506.457 L539,516.457 L549,516.457 L539,506.457"/><text x="229" y="524.025" fill="#000" font-family="sans-serif" font-size="13" lengthAdjust="spacingAndGlyphs" textLength="305">generate_node_key 87960930222 19351404648</text><polygon fill="#A80036" stroke="#A80036" stroke-width="1" points="79 558.078 69 562.078 79 566.078 75 562.078"/><line x1="73" x2="317" y1="562.078" y2="562.078" stroke="#A80036" stroke-width="1"/><text x="85" y="557.336" fill="#000" font-family="sans-serif" font-size="13" lengthAdjust="spacingAndGlyphs" textLength="226">GET /shard seed=randomTextHere1</text><polygon fill="#A80036" stroke="#A80036" stroke-width="1" points="306 587.389 316 591.389 306 595.389 310 591.389"/><line x1="68" x2="312" y1="591.389" y2="591.389" stroke="#A80036" stroke-width="1"/><text x="75" y="586.646" fill="#000" font-family="sans-serif" font-size="13" lengthAdjust="spacingAndGlyphs" textLength="192">[87960930222, 19351404648]</text><path fill="#FBFB77" stroke="#A80036" stroke-width="1" d="M223,604.3887 L223,629.3887 L549,629.3887 L549,614.3887 L539,604.3887 L223,604.3887" filter="url(#f1v2ausvuwa2wf)"/><path fill="#FBFB77" stroke="#A80036" stroke-width="1" d="M539,604.3887 L539,614.3887 L549,614.3887 L539,604.3887"/><text x="229" y="621.957" fill="#000" font-family="sans-serif" font-size="13" lengthAdjust="spacingAndGlyphs" textLength="305">generate_node_key 87960930222 19351404648</text></g></svg>