<svg xmlns="http://www.w3.org/2000/svg" xmlns:xlink="http://www.w3.org/1999/xlink" width="176" height="133" version="1.1" viewBox="0 0 176 133"><title>Oval 2@2x</title><desc>Created with Sketch.</desc><defs><polygon id="path-1" points="0 0 285.722 0 285.722 260 0 260"/></defs><g id="Dizajn" fill="none" fill-rule="evenodd" stroke="none" stroke-width="1" opacity=".3"><g id="01-02-00-V2" transform="translate(-594.000000, -915.000000)"><g id="Normal" transform="translate(160.000000, 823.000000)"><g id="2" transform="translate(434.000000, 0.000000)"><g id="Oval-2"><g transform="translate(-88.000000, 92.000000)"><mask id="mask-2" fill="#fff"><use xlink:href="#path-1"/></mask><ellipse id="Oval" cx="89.013" cy="3" fill="#DBDDE0" mask="url(#mask-2)" rx="3.297" ry="3"/><ellipse id="Oval" cx="89.013" cy="29" fill="#DBDDE0" mask="url(#mask-2)" rx="3.297" ry="3"/><ellipse id="Oval" cx="89.013" cy="55" fill="#DBDDE0" mask="url(#mask-2)" rx="3.297" ry="3"/><ellipse id="Oval" cx="89.013" cy="81" fill="#DBDDE0" mask="url(#mask-2)" rx="3.297" ry="3"/><ellipse id="Oval" cx="89.013" cy="107" fill="#DBDDE0" mask="url(#mask-2)" rx="3.297" ry="3"/><ellipse id="Oval" cx="89.013" cy="133" fill="#DBDDE0" mask="url(#mask-2)" rx="3.297" ry="3"/><ellipse id="Oval" cx="117.586" cy="3" fill="#DBDDE0" mask="url(#mask-2)" rx="3.297" ry="3"/><ellipse id="Oval" cx="117.586" cy="29" fill="#DBDDE0" mask="url(#mask-2)" rx="3.297" ry="3"/><ellipse id="Oval" cx="117.586" cy="55" fill="#DBDDE0" mask="url(#mask-2)" rx="3.297" ry="3"/><ellipse id="Oval" cx="117.586" cy="81" fill="#DBDDE0" mask="url(#mask-2)" rx="3.297" ry="3"/><ellipse id="Oval" cx="117.586" cy="107" fill="#DBDDE0" mask="url(#mask-2)" rx="3.297" ry="3"/><ellipse id="Oval" cx="117.586" cy="133" fill="#DBDDE0" mask="url(#mask-2)" rx="3.297" ry="3"/><ellipse id="Oval" cx="146.158" cy="3" fill="#DBDDE0" mask="url(#mask-2)" rx="3.297" ry="3"/><ellipse id="Oval" cx="146.158" cy="29" fill="#DBDDE0" mask="url(#mask-2)" rx="3.297" ry="3"/><ellipse id="Oval" cx="146.158" cy="55" fill="#DBDDE0" mask="url(#mask-2)" rx="3.297" ry="3"/><ellipse id="Oval" cx="146.158" cy="81" fill="#DBDDE0" mask="url(#mask-2)" rx="3.297" ry="3"/><ellipse id="Oval" cx="146.158" cy="107" fill="#DBDDE0" mask="url(#mask-2)" rx="3.297" ry="3"/><ellipse id="Oval" cx="146.158" cy="133" fill="#DBDDE0" mask="url(#mask-2)" rx="3.297" ry="3"/><ellipse id="Oval" cx="174.73" cy="3" fill="#DBDDE0" mask="url(#mask-2)" rx="3.297" ry="3"/><ellipse id="Oval" cx="174.73" cy="29" fill="#DBDDE0" mask="url(#mask-2)" rx="3.297" ry="3"/><ellipse id="Oval" cx="174.73" cy="55" fill="#DBDDE0" mask="url(#mask-2)" rx="3.297" ry="3"/><ellipse id="Oval" cx="174.73" cy="81" fill="#DBDDE0" mask="url(#mask-2)" rx="3.297" ry="3"/><ellipse id="Oval" cx="174.73" cy="107" fill="#DBDDE0" mask="url(#mask-2)" rx="3.297" ry="3"/><ellipse id="Oval" cx="174.73" cy="133" fill="#DBDDE0" mask="url(#mask-2)" rx="3.297" ry="3"/><ellipse id="Oval" cx="203.302" cy="3" fill="#DBDDE0" mask="url(#mask-2)" rx="3.297" ry="3"/><ellipse id="Oval" cx="203.302" cy="29" fill="#DBDDE0" mask="url(#mask-2)" rx="3.297" ry="3"/><ellipse id="Oval" cx="203.302" cy="55" fill="#DBDDE0" mask="url(#mask-2)" rx="3.297" ry="3"/><ellipse id="Oval" cx="203.302" cy="81" fill="#DBDDE0" mask="url(#mask-2)" rx="3.297" ry="3"/><ellipse id="Oval" cx="203.302" cy="107" fill="#DBDDE0" mask="url(#mask-2)" rx="3.297" ry="3"/><ellipse id="Oval" cx="203.302" cy="133" fill="#DBDDE0" mask="url(#mask-2)" rx="3.297" ry="3"/><ellipse id="Oval" cx="231.874" cy="3" fill="#DBDDE0" mask="url(#mask-2)" rx="3.297" ry="3"/><ellipse id="Oval" cx="231.874" cy="29" fill="#DBDDE0" mask="url(#mask-2)" rx="3.297" ry="3"/><ellipse id="Oval" cx="231.874" cy="55" fill="#DBDDE0" mask="url(#mask-2)" rx="3.297" ry="3"/><ellipse id="Oval" cx="231.874" cy="81" fill="#DBDDE0" mask="url(#mask-2)" rx="3.297" ry="3"/><ellipse id="Oval" cx="231.874" cy="107" fill="#DBDDE0" mask="url(#mask-2)" rx="3.297" ry="3"/><ellipse id="Oval" cx="231.874" cy="133" fill="#DBDDE0" mask="url(#mask-2)" rx="3.297" ry="3"/><ellipse id="Oval" cx="260.447" cy="3" fill="#DBDDE0" mask="url(#mask-2)" rx="3.297" ry="3"/><ellipse id="Oval" cx="260.447" cy="29" fill="#DBDDE0" mask="url(#mask-2)" rx="3.297" ry="3"/><ellipse id="Oval" cx="260.447" cy="55" fill="#DBDDE0" mask="url(#mask-2)" rx="3.297" ry="3"/><ellipse id="Oval" cx="260.447" cy="81" fill="#DBDDE0" mask="url(#mask-2)" rx="3.297" ry="3"/><ellipse id="Oval" cx="260.447" cy="107" fill="#DBDDE0" mask="url(#mask-2)" rx="3.297" ry="3"/><ellipse id="Oval" cx="260.447" cy="133" fill="#DBDDE0" mask="url(#mask-2)" rx="3.297" ry="3"/></g></g></g></g></g></g></svg>