<svg xmlns="http://www.w3.org/2000/svg" xmlns:xlink="http://www.w3.org/1999/xlink" width="67" height="67" version="1.1" viewBox="0 0 67 67"><title>Group 8@3x</title><desc>Created with Sketch.</desc><g id="Dizajn" fill="none" fill-rule="evenodd" stroke="none" stroke-width="1"><g id="01-02-00-V2" transform="translate(-625.000000, -854.000000)"><g id="Normal" transform="translate(160.000000, 823.000000)"><g id="2" transform="translate(434.000000, 0.000000)"><g id="Group-8" transform="translate(32.000000, 31.999978)"><circle id="Oval" cx="32.5" cy="32.5" r="32.5" fill="#24B47E" fill-opacity=".2" stroke="#24B47E" stroke-width="1.3"/><ellipse id="Oval" cx="33" cy="32.5" stroke="#24B47E" stroke-linecap="round" stroke-linejoin="round" stroke-width="2" rx="9" ry="9.227"/><polyline id="Path" stroke="#24B47E" stroke-linecap="round" stroke-linejoin="round" stroke-width="2" points="33 28.545 33 32.5 34.929 34.477"/><path id="Shape" stroke="#24B47E" stroke-linecap="round" stroke-linejoin="round" stroke-width="2" d="M38.7985714,39.5522948 L38.3485714,44.6009312 C38.2284781,45.963572 37.1116248,47.0055735 35.7771429,47.0000221 L30.21,47.0000221 C28.8755181,47.0055735 27.7586648,45.963572 27.6385714,44.6009312 L27.1885714,39.5522948 M27.2014286,25.4477494 L27.6514286,20.399113 C27.7710878,19.041517 28.8804473,18.0013059 30.21,18.0000221 L35.8028571,18.0000221 C37.1373391,17.9944707 38.2541923,19.0364722 38.3742857,20.399113 L38.8242857,25.4477494"/></g></g></g></g></g></svg>